PathFileType	4	(X/Y/Z)	Walk5.trc
DataRate	CameraRate	NumFrames	NumMarkers	Units	OrigDataRate	OrigDataStartFrame	OrigNumFrames
200.000000	200.000000	4	59	mm	200.000000	284	561
Frame#	Times		LFHD		C7		CLAV		STRN		RBack		LASI		RASI		RACR1		RUA1		RElbow		RFA1		RWRU		RCAR		LACR1		LFA1		LWRR		LCAR		RTH1		RTH2		RTH4		RLFC		LTH1		LTH3		LTH2		LLFC		LTB1		LTB3		LTB2		LTB4		LMT1		LToe		LMMAL		T10		RWRR		LMT5		LTH4		RFHD		LLMAL		RTH3		LPSI		RPSI		RBHD		LElbowM		RMT1		LUA1		RTB1		RMMAL		LBHD		LElbow		RTB2		RTB4		LWRU		RMT5		RElbowM		RTB3		RToe		RLMAL		RCAL		LCAL
			X1	Y1	Z1	X2	Y2	Z2	X3	Y3	Z3	X4	Y4	Z4	X5	Y5	Z5	X6	Y6	Z6	X7	Y7	Z7	X8	Y8	Z8	X9	Y9	Z9	X10	Y10	Z10	X11	Y11	Z11	X12	Y12	Z12	X13	Y13	Z13	X14	Y14	Z14	X15	Y15	Z15	X16	Y16	Z16	X17	Y17	Z17	X18	Y18	Z18	X19	Y19	Z19	X20	Y20	Z20	X21	Y21	Z21	X22	Y22	Z22	X23	Y23	Z23	X24	Y24	Z24	X25	Y25	Z25	X26	Y26	Z26	X27	Y27	Z27	X28	Y28	Z28	X29	Y29	Z29	X30	Y30	Z30	X31	Y31	Z31	X32	Y32	Z32	X33	Y33	Z33	X34	Y34	Z34	X35	Y35	Z35	X36	Y36	Z36	X37	Y37	Z37	X38	Y38	Z38	X39	Y39	Z39	X40	Y40	Z40	X41	Y41	Z41	X42	Y42	Z42	X43	Y43	Z43	X44	Y44	Z44	X45	Y45	Z45	X46	Y46	Z46	X47	Y47	Z47	X48	Y48	Z48	X49	Y49	Z49	X50	Y50	Z50	X51	Y51	Z51	X52	Y52	Z52	X53	Y53	Z53	X54	Y54	Z54	X55	Y55	Z55	X56	Y56	Z56	X57	Y57	Z57	X58	Y58	Z58	X59	Y59	Z59

284	1.42	-367.3	1587.3	-91.033	-524.62	1416.8	-54.76	-396.56	1340.4	-56.546	-317.07	1117.7	-42.651	-566.41	1315.2	47.019	-368.4	937.96	-163.36	-376.92	939.22	96.941	-448.79	1358.7	116.61	-469.75	1148.1	183.41	-490.59	1041.2	207.05	-413.12	906.48	210.05	-427.24	794.85	222.18	-375.26	762.07	217.51	-456.64	1346.2	-227.04	-502.2	895.78	-284.37	-518.54	733.28	-287.76	-501.65	776.12	-246.8	-456.61	734.02	136.45	-378.52	656.74	97.531	-444.81	641.21	120.99	-432.83	456.5	96.091	-445.88	740.75	-207.75	-399.44	564.67	-166.97	-353.95	669.69	-159.19	-384.33	456.67	-152.1	-352.44	360.71	-70.436	-373.34	174.32	-64.459	-386.77	267.26	-138.47	-362.04	265.48	-71.144	-269.95	38.366	-69.033	-225.28	30.306	-98.27	-402.33	74.992	-27.183	-557.87	1133.6	-41.384	-378.41	808.19	168.23	-310.81	22.76	-145.49	-423.35	648.48	-186.87	-360.82	1591.4	-18.002	-418.46	61.2	-107.26	-431.62	548.18	109.27	-587.92	975.24	-89.709	-589.77	973.52	25.961	-528.94	1542.9	19.451	-548.24	1014.3	-199.97	-695.82	75.875	26.771	-497.13	1138.4	-264.69	-484.85	346.71	30.204	-725.8	212.74	3.3633	-535.13	1547.1	-107.74	-531.21	1023.1	-268.74	-570.81	315.03	100.13	-564.3	298.74	30.503	-556.37	784.94	-292.81	-742.64	90.344	93.941	-501.64	1018.9	124.99	-642.69	249.57	30.922	-679.01	46.933	56.519	-755.47	219.28	79.316	-802.37	237.67	29.241	-467.22	28.866	-52.799
285	1.425	-361.56	1588.2	-91.111	-519.15	1417.8	-55.016	-391.2	1341.3	-56.738	-311.82	1118.6	-42.851	-561.18	1316.2	46.564	-363.9	938.66	-164.21	-371.81	940.37	97.023	-443.61	1359.5	116.45	-465.34	1148.9	183.07	-486.62	1042.1	206.55	-410.25	906.84	209.97	-425.28	795.34	222.21	-373.63	762.04	217.6	-451.12	1347.2	-227.24	-493.58	896.41	-284.48	-509.03	733.81	-287.78	-492.9	776.78	-246.65	-450.3	735.4	136.47	-371.07	658.91	98.263	-437.45	642.75	121.09	-422.58	458.58	96.121	-441.91	741.11	-207.85	-396.7	564.71	-167.09	-350.46	669.37	-159.44	-382.36	456.57	-152.2	-350.97	360.48	-70.519	-372.82	174.17	-64.49	-385.75	267.13	-138.54	-361.08	265.28	-71.182	-270	38.367	-69.095	-225.29	30.25	-98.41	-402.33	74.984	-27.179	-552.54	1134.6	-41.834	-376.24	808.19	168.3	-310.87	22.731	-145.56	-420.05	648.68	-186.97	-355.09	1592.1	-18.067	-418.48	61.204	-107.27	-423.2	549.85	109.33	-582.72	976.16	-89.758	-584.31	974.63	25.845	-523.28	1543.9	19.315	-541.25	1014.8	-200.8	-681.85	76.999	27.619	-490.31	1139.1	-265.06	-473.78	348.61	30.03	-713.8	213.21	2.7119	-529.46	1548.2	-107.88	-523.5	1023.5	-269.36	-559.63	316.42	99.762	-552.94	300.21	30.15	-547.01	785.31	-293.5	-729.1	91.599	94.482	-497.5	1019.8	124.58	-631.08	250.65	30.431	-664.79	48.252	57.679	-743.76	219.83	78.592	-790.87	237.33	28.198	-467.25	28.868	-52.767
286	1.43	-355.84	1589	-91.168	-513.69	1418.8	-55.256	-385.86	1342.2	-56.92	-306.58	1119.4	-43.062	-555.96	1317.1	46.123	-359.4	939.37	-165.1	-366.71	941.51	97.115	-438.43	1360.4	116.3	-460.91	1149.7	182.73	-482.66	1043	206.06	-407.38	907.23	209.88	-423.32	795.86	222.26	-372	762.04	217.7	-445.63	1348.2	-227.43	-484.91	897.08	-284.56	-499.4	734.38	-287.79	-484.07	777.48	-246.49	-444.05	736.78	136.51	-363.67	661.12	99.024	-430.14	644.32	121.19	-412.41	460.69	96.136	-437.96	741.46	-207.93	-394.01	564.74	-167.16	-347	669.04	-159.66	-380.44	456.47	-152.25	-349.57	360.26	-70.556	-372.32	174.02	-64.498	-384.74	267.01	-138.59	-360.14	265.08	-71.189	-270.05	38.364	-69.148	-225.29	30.196	-98.528	-402.32	74.971	-27.165	-547.23	1135.6	-42.279	-374.09	808.21	168.39	-310.93	22.702	-145.63	-416.78	648.89	-187.03	-349.37	1592.9	-18.113	-418.49	61.21	-107.27	-414.81	551.56	109.38	-577.52	977.06	-89.777	-578.86	975.74	25.758	-517.64	1544.9	19.203	-534.29	1015.3	-201.67	-667.62	77.892	28.439	-483.5	1139.8	-265.41	-462.69	350.49	29.843	-701.62	213.39	2.0275	-523.8	1549.3	-107.99	-515.79	1024	-270	-548.4	317.69	99.38	-541.5	301.57	29.785	-537.53	785.7	-294.18	-715.33	92.577	94.981	-493.45	1020.8	124.16	-619.33	251.52	29.916	-650.29	49.397	58.825	-731.87	220.07	77.833	-779.2	236.63	27.115	-467.28	28.874	-52.731
287	1.435	-350.13	1589.8	-91.207	-508.25	1419.8	-55.48	-380.53	1343.1	-57.094	-301.34	1120.3	-43.285	-550.75	1318.1	45.696	-354.91	940.08	-166.03	-361.61	942.64	97.208	-433.26	1361.2	116.15	-456.47	1150.5	182.37	-478.71	1043.9	205.59	-404.51	907.64	209.8	-421.37	796.4	222.31	-370.37	762.06	217.8	-440.17	1349.1	-227.6	-476.18	897.79	-284.62	-489.65	735	-287.77	-475.15	778.23	-246.3	-437.86	738.17	136.57	-356.31	663.36	99.804	-422.86	645.9	121.29	-402.31	462.83	96.135	-434.03	741.79	-207.97	-391.36	564.76	-167.2	-343.57	668.7	-159.84	-378.55	456.38	-152.27	-348.24	360.04	-70.546	-371.82	173.87	-64.481	-383.74	266.9	-138.6	-359.22	264.89	-71.165	-270.09	38.359	-69.192	-225.29	30.145	-98.626	-402.32	74.954	-27.14	-541.92	1136.5	-42.72	-371.94	808.27	168.48	-310.98	22.674	-145.7	-413.54	649.08	-187.05	-343.67	1593.6	-18.142	-418.5	61.22	-107.25	-406.44	553.31	109.41	-572.33	977.95	-89.767	-573.42	976.85	25.699	-512.02	1545.8	19.113	-527.37	1015.8	-202.58	-653.14	78.563	29.222	-476.69	1140.5	-265.77	-451.56	352.34	29.649	-689.27	213.27	1.3232	-518.16	1550.4	-108.07	-508.07	1024.6	-270.65	-537.12	318.84	98.986	-529.99	302.81	29.416	-527.95	786.11	-294.85	-701.34	93.277	95.434	-489.5	1021.7	123.72	-607.45	252.2	29.389	-635.54	50.368	59.943	-719.83	219.98	77.053	-767.38	235.57	26.015	-467.31	28.885	-52.689
